<svg xmlns="http://www.w3.org/2000/svg" viewBox="0 0 100 125" x="0px" y="0px" fill="#608B38">
    <g>
        <path
            d="M65.413,43.44c-.123-.235-.334-.412-.588-.491-.254-.08-.528-.056-.762,.068l-2.203,1.151c-1.227,.641-2.75,.164-3.391-1.064l-7.532-14.419c-.642-1.228-.164-2.75,1.063-3.391l2.204-1.151c.235-.123,.412-.333,.491-.587,.079-.253,.055-.527-.067-.762l-5.393-10.323c-.123-.235-.334-.412-.587-.491-.257-.081-.527-.056-.763,.068l-4.407,2.302c-3.922,2.048-5.446,6.906-3.398,10.829l15.063,28.838c1.432,2.739,4.232,4.309,7.128,4.309,1.251,0,2.52-.293,3.702-.911l4.407-2.302c.489-.255,.679-.86,.424-1.349l-5.393-10.323Z" />
        <path
            d="M66.896,71.164h-23.706c-2.204,0-3.998,1.793-3.998,3.998v9.527c0,2.204,1.794,3.998,3.998,3.998h23.706c2.204,0,3.998-1.793,3.998-3.998v-9.527c0-2.205-1.794-3.998-3.998-3.998Zm1.998,13.525c0,1.102-.896,1.998-1.998,1.998h-23.706c-1.102,0-1.998-.896-1.998-1.998v-9.527c0-1.102,.896-1.998,1.998-1.998h23.706c1.102,0,1.998,.896,1.998,1.998v9.527Z" />
        <path d="M64.347,75.642h-4.776c-.553,0-1,.448-1,1s.447,1,1,1h4.776c.553,0,1-.448,1-1s-.447-1-1-1Z" />
        <path d="M44.794,77.642h11.791c.553,0,1-.448,1-1s-.447-1-1-1h-11.791c-.553,0-1,.448-1,1s.447,1,1,1Z" />
        <path d="M44.794,80.925h16.418c.553,0,1-.448,1-1s-.447-1-1-1h-16.418c-.553,0-1,.448-1,1s.447,1,1,1Z" />
        <path d="M64.347,82.209h-19.553c-.553,0-1,.448-1,1s.447,1,1,1h19.553c.553,0,1-.448,1-1s-.447-1-1-1Z" />
        <path
            d="M86.433,15.569h-4.967V6.064c0-.552-.447-1-1-1H17.857c-2.917,0-5.29,2.374-5.29,5.291V89.645c0,2.917,2.373,5.291,5.29,5.291h62.608c.553,0,1-.448,1-1v-22.186h.867c2.812,0,5.1-2.288,5.1-5.1V16.569c0-.552-.447-1-1-1Zm-4.967,29.09h.867c1.165,0,2.24-.393,3.1-1.053v4.982c0,1.709-1.391,3.1-3.1,3.1h-.867v-7.03Zm3.967-5.1c0,1.709-1.391,3.1-3.1,3.1h-.867v-7.03h.867c1.171,0,2.238-.413,3.1-1.079v5.009ZM30.621,92.936V7.064h48.845v9.49c0,.005-.003,.009-.003,.015v18.06c0,.005,.003,.009,.003,.015v9.001c0,.005-.003,.009-.003,.015v9.03c0,.005,.003,.009,.003,.015v9.001c0,.005-.003,.009-.003,.015v9.03c0,.005,.003,.009,.003,.015v22.172H30.621Zm54.812-26.286c0,1.709-1.391,3.1-3.1,3.1h-.867v-7.03h.867c1.165,0,2.24-.393,3.1-1.053v4.983Zm-3.1-5.93h-.867v-7.03h.867c1.171,0,2.238-.413,3.1-1.079v5.009c0,1.709-1.391,3.1-3.1,3.1Z" />
    </g>
</svg>